<svg id="svg" version="1.1" xmlns="http://www.w3.org/2000/svg" xmlns:xlink="http://www.w3.org/1999/xlink" width="400" height="207.93597865955317" viewBox="0, 0, 400,207.93597865955317"><g id="svgg"><path id="path0" d="M67.212 10.042 C 66.981 10.337,65.167 13.613,65.167 13.733 C 65.167 14.069,65.650 13.739,65.887 13.241 C 66.304 12.368,67.884 12.406,67.969 13.292 C 68.008 13.692,68.509 14.165,68.499 13.792 C 68.498 13.769,68.349 12.887,68.167 11.833 C 67.985 10.779,67.835 9.898,67.834 9.875 C 67.831 9.738,67.347 9.868,67.212 10.042 M67.712 11.458 L 67.802 12.167 67.153 12.167 L 66.504 12.167 66.953 11.250 C 67.438 10.262,67.565 10.297,67.712 11.458 M79.833 16.605 C 71.054 17.604,65.712 18.813,59.667 21.166 C 59.163 21.362,58.487 21.623,58.167 21.745 C 44.306 27.022,30.939 38.508,22.859 52.083 C 9.847 73.945,9.119 100.993,20.938 123.446 C 36.244 152.522,69.220 167.804,101.417 160.740 C 102.517 160.498,103.792 160.230,104.250 160.144 C 105.017 160.001,116.331 160.184,121.250 160.419 C 122.258 160.468,126.983 160.581,131.750 160.672 C 136.517 160.762,142.779 160.910,145.667 161.001 C 148.554 161.091,154.517 161.239,158.917 161.330 C 163.317 161.420,171.117 161.606,176.250 161.742 C 181.383 161.878,189.033 162.068,193.250 162.164 C 197.467 162.260,202.323 162.387,204.042 162.445 C 207.118 162.550,207.167 162.547,207.167 162.209 C 207.167 161.976,206.942 161.750,206.461 161.499 C 206.073 161.297,204.591 160.476,203.169 159.676 C 199.901 157.837,194.840 155.010,193.750 154.413 C 193.292 154.162,191.154 152.966,189.000 151.754 C 181.827 147.719,176.759 144.876,175.917 144.413 C 175.458 144.162,173.583 143.115,171.750 142.086 C 168.184 140.085,160.518 135.782,159.417 135.163 C 159.050 134.957,158.375 134.584,157.917 134.335 C 157.458 134.086,156.221 133.393,155.167 132.796 C 154.112 132.198,152.125 131.090,150.750 130.333 C 147.111 128.330,147.267 128.624,148.643 126.358 C 150.750 122.888,153.610 116.610,154.937 112.545 C 169.282 68.598,140.642 23.061,94.833 16.980 C 92.221 16.633,81.863 16.374,79.833 16.605 M91.167 17.339 C 97.554 17.881,102.818 18.949,108.583 20.873 C 110.596 21.545,114.118 22.879,114.637 23.167 C 114.791 23.253,115.930 23.798,117.168 24.380 C 136.851 33.626,151.271 51.988,156.397 74.333 C 160.158 90.727,157.107 110.267,148.421 125.417 C 147.003 127.889,147.322 127.938,145.072 124.896 C 143.995 123.441,142.726 121.725,142.251 121.083 C 141.777 120.442,140.642 118.904,139.730 117.667 C 138.818 116.429,137.249 114.303,136.244 112.941 C 135.239 111.580,133.817 109.651,133.083 108.655 C 132.350 107.659,131.075 105.928,130.250 104.807 C 129.425 103.687,128.408 102.316,127.991 101.760 C 127.574 101.205,125.740 98.725,123.915 96.250 C 120.560 91.697,118.750 89.245,115.741 85.174 C 114.829 83.940,113.392 81.990,112.546 80.840 C 109.417 76.586,108.143 74.859,106.384 72.488 C 105.394 71.153,103.796 68.988,102.833 67.677 C 101.871 66.367,100.408 64.383,99.583 63.270 C 96.128 58.606,92.321 53.450,88.803 48.667 C 87.960 47.521,86.548 45.608,85.665 44.417 C 84.782 43.225,83.286 41.200,82.340 39.917 C 81.395 38.633,80.388 37.267,80.103 36.881 C 79.817 36.494,79.237 35.707,78.813 35.131 C 78.101 34.162,75.643 30.833,71.393 25.083 C 70.444 23.800,69.145 22.040,68.504 21.172 C 67.252 19.474,67.253 19.481,68.250 19.204 C 73.967 17.617,84.410 16.767,91.167 17.339 M66.637 20.542 C 66.727 20.931,66.958 21.831,67.150 22.542 C 67.539 23.977,68.004 25.716,68.486 27.542 C 68.662 28.206,69.043 29.613,69.333 30.667 C 69.624 31.721,70.005 33.127,70.181 33.792 C 70.548 35.180,71.032 36.991,71.407 38.375 C 71.550 38.902,71.783 39.765,71.926 40.292 C 72.395 42.021,73.264 45.274,73.819 47.375 C 73.995 48.040,74.376 49.446,74.667 50.500 C 74.957 51.554,75.334 52.942,75.504 53.583 C 75.675 54.225,75.925 55.163,76.061 55.667 C 76.197 56.171,76.470 57.183,76.667 57.917 C 76.864 58.650,77.136 59.663,77.272 60.167 C 77.408 60.671,77.659 61.608,77.830 62.250 C 78.001 62.892,78.527 64.842,79.000 66.583 C 79.473 68.325,80.003 70.294,80.180 70.958 C 80.850 73.488,81.662 76.525,82.063 78.000 C 82.595 79.962,82.864 80.961,83.163 82.083 C 83.333 82.725,83.741 84.236,84.070 85.440 C 84.850 88.303,84.864 88.274,83.220 87.198 C 81.596 86.134,79.299 84.654,74.500 81.580 C 73.813 81.139,72.486 80.285,71.552 79.681 C 70.618 79.077,68.687 77.833,67.260 76.917 C 65.833 76.000,63.733 74.650,62.593 73.917 C 61.453 73.183,59.353 71.833,57.926 70.917 C 56.499 70.000,54.171 68.500,52.752 67.583 C 51.333 66.667,49.231 65.317,48.080 64.583 C 46.929 63.850,45.296 62.799,44.452 62.249 C 42.838 61.196,32.953 54.832,28.237 51.809 C 24.754 49.577,24.997 49.900,25.847 48.641 C 34.664 35.590,48.517 25.301,63.750 20.492 C 66.388 19.659,66.433 19.660,66.637 20.542 M72.274 27.500 C 73.189 28.738,75.015 31.212,76.331 33.000 C 79.496 37.299,80.526 38.693,83.104 42.167 C 84.295 43.771,85.896 45.946,86.662 47.000 C 87.428 48.054,88.778 49.892,89.663 51.083 C 92.076 54.335,93.806 56.673,96.995 61.000 C 98.583 63.154,100.272 65.442,100.750 66.083 C 102.389 68.287,106.585 73.971,107.905 75.776 C 109.237 77.599,109.873 78.460,113.357 83.167 C 114.409 84.587,116.759 87.775,118.579 90.250 C 120.399 92.725,122.499 95.575,123.247 96.583 C 126.677 101.210,128.065 103.087,129.722 105.333 C 130.702 106.662,132.279 108.800,133.228 110.083 C 134.176 111.367,136.069 113.928,137.434 115.775 C 138.800 117.623,140.554 120.003,141.333 121.065 C 142.112 122.127,143.481 123.984,144.374 125.193 C 145.267 126.402,145.969 127.420,145.934 127.455 C 145.899 127.490,144.851 126.859,143.607 126.051 C 142.362 125.244,140.291 123.908,139.004 123.083 C 137.717 122.258,135.619 120.908,134.342 120.083 C 131.580 118.299,128.583 116.369,123.500 113.103 C 121.438 111.778,118.604 109.956,117.203 109.055 C 115.803 108.154,113.721 106.817,112.577 106.083 C 108.238 103.302,101.061 98.688,96.083 95.479 C 93.242 93.648,90.148 91.656,89.208 91.053 C 87.635 90.044,87.500 89.916,87.500 89.432 C 87.500 88.540,86.746 87.681,85.955 87.672 C 85.393 87.666,85.332 87.538,84.683 85.000 C 84.413 83.946,83.956 82.221,83.666 81.167 C 83.376 80.112,82.995 78.706,82.819 78.042 C 82.491 76.801,82.041 75.117,81.605 73.500 C 81.470 72.996,81.197 71.983,81.000 71.250 C 80.803 70.517,80.530 69.504,80.395 69.000 C 80.259 68.496,80.008 67.558,79.837 66.917 C 79.666 66.275,79.139 64.325,78.667 62.583 C 78.194 60.842,77.663 58.873,77.487 58.208 C 77.083 56.684,76.592 54.851,76.270 53.667 C 76.134 53.163,75.911 52.337,75.775 51.833 C 75.639 51.329,75.141 49.492,74.668 47.750 C 73.737 44.324,73.262 42.556,72.920 41.250 C 72.800 40.792,72.550 39.854,72.364 39.167 C 70.622 32.736,69.083 27.036,68.820 26.042 C 68.644 25.377,68.341 24.252,68.147 23.542 C 67.388 20.766,67.063 20.454,72.274 27.500 M22.201 46.042 C 21.994 47.073,21.827 47.976,21.829 48.048 C 21.836 48.276,24.715 48.108,24.792 47.875 C 24.843 47.720,24.530 47.667,23.578 47.667 C 22.328 47.667,22.297 47.657,22.395 47.292 C 22.450 47.085,22.496 46.785,22.498 46.625 C 22.500 46.376,22.667 46.333,23.649 46.333 C 24.481 46.333,24.822 46.269,24.887 46.100 C 25.028 45.734,24.852 45.667,23.751 45.667 L 22.724 45.667 22.798 45.167 L 22.871 44.667 24.102 44.667 C 25.085 44.667,25.333 44.616,25.333 44.417 C 25.333 44.215,25.069 44.167,23.955 44.167 L 22.576 44.167 22.201 46.042 M25.967 51.220 C 26.581 51.616,27.758 52.371,28.583 52.898 C 29.408 53.425,31.152 54.545,32.458 55.387 C 33.764 56.228,35.999 57.667,37.425 58.583 C 38.852 59.500,40.950 60.850,42.088 61.583 C 43.226 62.317,45.326 63.667,46.755 64.583 C 48.184 65.500,50.286 66.850,51.426 67.583 C 52.566 68.317,54.666 69.667,56.093 70.583 C 57.519 71.500,59.619 72.850,60.759 73.583 C 61.899 74.317,63.999 75.667,65.426 76.583 C 66.853 77.500,68.972 78.862,70.135 79.610 C 73.349 81.678,75.108 82.808,76.667 83.805 C 77.446 84.304,78.849 85.208,79.784 85.814 C 80.720 86.421,82.046 87.272,82.732 87.706 C 83.917 88.456,83.972 88.518,83.844 88.962 C 83.764 89.241,83.787 89.662,83.900 90.006 C 84.079 90.552,84.059 90.612,83.529 91.118 C 82.989 91.633,82.972 91.688,83.062 92.618 C 83.114 93.149,83.158 93.780,83.160 94.021 C 83.170 94.976,84.400 95.029,85.549 94.124 C 86.318 93.519,86.227 93.426,86.732 95.338 C 86.962 96.206,87.266 97.348,87.408 97.875 C 87.550 98.402,87.783 99.265,87.925 99.792 C 88.068 100.319,88.366 101.425,88.589 102.250 C 88.812 103.075,89.296 104.875,89.664 106.250 C 90.032 107.625,90.526 109.462,90.762 110.333 C 90.997 111.204,91.335 112.460,91.512 113.125 C 91.954 114.788,92.431 116.567,92.740 117.708 C 92.883 118.235,93.117 119.098,93.260 119.625 C 93.604 120.898,94.093 122.724,94.487 124.208 C 94.663 124.873,95.194 126.842,95.667 128.583 C 96.139 130.325,96.670 132.294,96.846 132.958 C 97.502 135.433,98.309 138.448,98.740 140.042 C 98.883 140.569,99.106 141.394,99.236 141.875 C 99.366 142.356,99.859 144.175,100.332 145.917 C 100.805 147.658,101.337 149.627,101.513 150.292 C 102.351 153.454,102.962 155.729,103.551 157.880 C 103.771 158.685,103.898 159.377,103.832 159.417 C 103.767 159.457,102.897 159.676,101.899 159.902 C 80.608 164.731,58.842 160.002,41.500 146.779 C 40.537 146.045,39.712 145.401,39.667 145.347 C 39.621 145.293,38.833 144.599,37.917 143.805 C 23.943 131.693,14.814 113.546,13.489 95.250 C 13.026 88.857,13.422 81.362,14.502 76.083 C 14.671 75.258,14.856 74.283,14.913 73.917 C 14.970 73.550,15.115 72.912,15.236 72.500 C 15.357 72.087,15.551 71.337,15.666 70.833 C 16.736 66.138,20.307 57.636,23.226 52.833 C 23.644 52.146,24.110 51.340,24.262 51.042 C 24.612 50.355,24.630 50.357,25.967 51.220 M88.523 91.417 C 89.152 91.829,90.173 92.493,90.792 92.893 C 91.410 93.292,92.779 94.176,93.833 94.857 C 96.270 96.431,100.388 99.075,101.582 99.833 C 102.566 100.458,108.812 104.470,116.458 109.388 C 119.047 111.054,124.222 114.383,127.958 116.785 C 131.693 119.188,135.477 121.626,136.365 122.202 C 137.253 122.778,139.148 124.000,140.574 124.917 C 146.489 128.717,146.216 128.522,145.974 128.763 C 145.851 128.886,143.125 130.903,139.917 133.246 C 136.708 135.589,130.986 139.774,127.199 142.545 C 123.413 145.316,119.951 147.846,119.507 148.167 C 117.669 149.493,106.440 157.717,105.632 158.329 C 104.665 159.060,104.590 159.046,104.358 158.083 C 104.200 157.425,103.956 156.510,103.071 153.250 C 102.822 152.333,102.488 151.096,102.328 150.500 C 101.647 147.964,101.156 146.144,99.001 138.167 C 98.345 135.737,97.664 133.206,97.487 132.542 C 96.941 130.483,96.566 129.087,95.753 126.083 C 95.185 123.986,92.442 113.789,92.154 112.708 C 91.737 111.137,91.251 109.325,90.926 108.125 C 90.783 107.598,90.560 106.773,90.430 106.292 C 89.055 101.199,87.748 96.365,87.489 95.417 C 86.648 92.333,86.463 91.148,86.785 90.904 C 87.215 90.577,87.264 90.591,88.523 91.417 M84.830 91.412 C 85.345 92.033,84.961 93.333,84.263 93.333 C 83.759 93.333,83.500 93.024,83.500 92.420 C 83.500 91.437,84.329 90.809,84.830 91.412 M86.064 91.734 C 86.196 92.258,86.020 93.109,85.730 93.350 C 85.538 93.509,85.500 93.356,85.500 92.437 C 85.500 91.292,85.845 90.861,86.064 91.734 M85.000 93.583 C 85.000 93.746,84.839 93.832,84.542 93.831 L 84.083 93.828 84.500 93.597 C 84.729 93.470,84.935 93.359,84.958 93.350 C 84.981 93.341,85.000 93.446,85.000 93.583 M153.439 124.858 C 153.275 125.715,153.100 126.623,153.050 126.875 C 152.959 127.330,152.966 127.333,153.854 127.333 C 156.960 127.332,157.849 123.561,154.789 123.366 L 153.738 123.299 153.439 124.858 M155.833 124.167 C 156.393 124.726,156.101 126.256,155.358 126.653 C 154.677 127.018,153.451 126.885,153.556 126.458 C 153.606 126.252,153.740 125.577,153.853 124.958 L 154.058 123.833 154.779 123.833 C 155.278 123.833,155.603 123.936,155.833 124.167 M149.182 131.708 C 150.220 133.106,151.692 135.094,152.452 136.125 C 154.112 138.378,156.022 140.963,158.273 144.000 C 159.190 145.237,160.739 147.337,161.716 148.667 C 165.207 153.415,166.345 154.956,168.482 157.833 C 169.674 159.438,170.597 160.790,170.533 160.840 C 170.469 160.889,168.654 160.877,166.500 160.813 C 164.346 160.749,158.833 160.614,154.250 160.512 C 149.667 160.411,141.904 160.218,137.000 160.085 C 132.096 159.952,124.071 159.759,119.167 159.656 C 114.263 159.553,109.575 159.419,108.750 159.358 L 107.250 159.248 109.083 158.613 C 124.299 153.343,138.205 142.715,146.250 130.206 C 147.126 128.845,147.013 128.787,149.182 131.708 M144.884 130.944 C 144.583 131.425,142.022 134.843,141.843 135.000 C 141.792 135.046,141.105 135.833,140.318 136.750 C 131.942 146.505,120.763 153.969,108.349 158.094 C 107.395 158.411,106.589 158.644,106.558 158.613 C 106.527 158.582,107.933 157.513,109.683 156.237 C 112.408 154.250,121.925 147.293,123.159 146.384 C 125.877 144.385,131.747 140.088,132.917 139.241 C 133.742 138.643,136.815 136.399,139.746 134.253 C 145.245 130.229,145.389 130.136,144.884 130.944 M149.592 130.477 C 149.679 130.557,150.275 130.903,150.917 131.248 C 151.558 131.592,153.583 132.716,155.417 133.746 C 157.250 134.775,160.625 136.670,162.917 137.957 C 165.208 139.243,167.458 140.502,167.917 140.753 C 168.776 141.225,172.344 143.224,179.583 147.293 C 181.875 148.581,184.200 149.879,184.750 150.179 C 185.300 150.478,187.100 151.486,188.750 152.419 C 192.179 154.358,193.051 154.846,194.333 155.542 C 194.838 155.816,196.000 156.469,196.917 156.994 C 198.495 157.899,199.219 158.302,201.596 159.602 C 202.152 159.906,203.202 160.495,203.929 160.910 L 205.250 161.664 202.500 161.664 C 200.987 161.664,196.037 161.556,191.500 161.425 C 186.963 161.294,180.666 161.134,177.509 161.070 C 171.945 160.958,171.758 160.943,171.465 160.602 C 171.215 160.311,168.713 156.939,164.280 150.917 C 163.875 150.367,162.435 148.417,161.080 146.583 C 156.130 139.884,155.055 138.427,153.593 136.441 C 152.773 135.328,151.442 133.531,150.635 132.449 C 149.827 131.367,149.167 130.448,149.167 130.407 C 149.167 130.283,149.424 130.325,149.592 130.477 M211.512 160.849 C 211.309 161.866,211.181 162.737,211.227 162.783 C 211.432 162.988,211.644 162.602,211.750 161.833 L 211.865 161.000 212.932 161.000 C 213.770 161.000,214.000 160.946,214.000 160.750 C 214.000 160.555,213.776 160.500,212.982 160.500 C 212.123 160.500,211.980 160.459,212.066 160.236 C 212.121 160.091,212.167 159.870,212.167 159.744 C 212.167 159.581,212.459 159.502,213.195 159.466 C 214.767 159.390,214.705 159.000,213.121 159.000 L 211.880 159.000 211.512 160.849 M105.333 161.086 C 105.333 161.210,104.662 164.361,104.562 164.708 C 104.418 165.205,106.666 165.128,107.262 164.616 C 107.770 164.178,107.865 163.391,107.446 163.084 C 107.211 162.913,107.218 162.864,107.509 162.615 C 107.945 162.241,107.922 161.581,107.463 161.259 C 107.121 161.020,105.333 160.875,105.333 161.086 M107.306 161.981 C 107.378 162.487,107.098 162.661,106.208 162.664 C 105.472 162.667,105.414 162.589,105.607 161.867 C 105.763 161.286,107.222 161.385,107.306 161.981 M173.959 162.459 C 172.610 163.296,172.722 165.781,174.121 166.048 C 174.734 166.165,175.573 165.799,175.926 165.259 C 176.278 164.722,176.084 164.454,175.697 164.941 C 174.733 166.155,173.127 165.570,173.402 164.104 C 173.637 162.849,175.310 162.101,175.872 163.000 C 176.145 163.438,176.495 163.434,176.380 162.995 C 176.172 162.199,174.850 161.907,173.959 162.459 M107.133 163.367 C 107.682 163.916,107.092 164.500,105.988 164.500 C 105.114 164.500,105.041 164.402,105.272 163.542 C 105.386 163.114,106.752 162.986,107.133 163.367 " stroke="none" fill="#4a4a4a" fill-rule="evenodd"></path><path id="path1" d="M0.000 103.917 L 0.000 207.833 200.000 207.833 L 400.000 207.833 400.000 103.917 L 400.000 0.000 200.000 0.000 L 0.000 0.000 0.000 103.917 M68.214 11.542 C 68.562 13.602,68.567 13.833,68.268 13.833 C 68.013 13.833,67.833 13.483,67.833 12.986 C 67.833 12.327,66.287 12.544,65.950 13.250 C 65.768 13.632,65.556 13.833,65.336 13.833 C 64.900 13.833,64.840 13.998,66.095 11.774 C 67.571 9.157,67.808 9.131,68.214 11.542 M67.042 11.235 C 66.573 12.202,66.568 12.167,67.167 12.167 C 67.703 12.167,67.754 11.992,67.522 10.939 L 67.417 10.461 67.042 11.235 M92.866 16.672 C 119.135 19.438,140.988 35.049,152.171 59.038 C 162.054 80.238,160.731 106.364,148.759 126.403 C 147.482 128.540,147.417 128.323,149.732 129.614 C 151.348 130.514,153.267 131.590,164.167 137.707 C 166.871 139.225,169.383 140.631,169.750 140.833 C 170.612 141.306,175.057 143.796,180.833 147.041 C 183.354 148.458,185.867 149.864,186.417 150.166 C 186.967 150.469,188.954 151.579,190.833 152.633 C 199.119 157.281,202.252 159.036,204.708 160.404 C 206.152 161.208,207.333 161.962,207.333 162.079 C 207.333 162.562,206.875 162.682,205.391 162.588 C 204.580 162.537,200.092 162.420,195.417 162.328 C 190.742 162.236,184.404 162.088,181.333 161.999 C 178.262 161.911,172.188 161.761,167.833 161.667 C 163.479 161.573,157.329 161.423,154.167 161.333 C 151.004 161.244,144.854 161.094,140.500 161.001 C 136.146 160.908,130.071 160.758,127.000 160.669 C 109.367 160.156,104.452 160.114,103.145 160.465 C 93.955 162.932,81.297 163.200,71.167 161.142 C 26.568 152.080,0.954 105.204,17.449 62.833 C 29.309 32.370,60.519 13.267,92.866 16.672 M82.250 17.339 C 77.400 17.571,69.943 18.667,67.865 19.453 C 67.446 19.611,66.925 18.855,74.669 29.333 C 76.270 31.500,82.326 39.710,88.577 48.190 C 90.223 50.423,92.291 53.225,93.172 54.417 C 97.391 60.122,103.663 68.613,107.330 73.583 C 109.562 76.608,111.900 79.777,112.527 80.625 C 114.422 83.188,115.760 85.002,120.000 90.750 C 122.231 93.775,124.668 97.075,125.415 98.083 C 126.163 99.092,128.075 101.679,129.664 103.833 C 131.253 105.987,133.055 108.425,133.668 109.250 C 134.281 110.075,137.131 113.938,140.002 117.833 C 146.190 126.230,147.012 127.333,147.083 127.333 C 147.325 127.333,150.262 121.798,151.561 118.892 C 161.141 97.467,159.673 72.574,147.644 52.455 C 133.967 29.583,108.798 16.067,82.250 17.339 M63.417 20.739 C 48.987 25.516,36.890 34.113,27.978 45.925 C 26.719 47.594,25.333 49.584,25.333 49.723 C 25.333 49.788,27.301 51.079,30.584 53.167 C 31.635 53.835,35.777 56.500,46.339 63.303 C 64.440 74.961,73.492 80.790,77.794 83.556 C 80.336 85.191,82.867 86.819,83.417 87.174 C 84.655 87.972,84.647 88.004,83.914 85.306 C 83.188 82.632,83.421 83.497,80.421 72.333 C 79.079 67.337,77.868 62.837,77.730 62.333 C 77.593 61.829,77.341 60.892,77.170 60.250 C 76.998 59.608,76.322 57.096,75.665 54.667 C 75.009 52.237,74.372 49.875,74.249 49.417 C 74.126 48.958,73.864 47.983,73.667 47.250 C 73.470 46.517,73.208 45.542,73.085 45.083 C 72.962 44.625,71.873 40.575,70.666 36.083 C 69.458 31.592,68.370 27.542,68.247 27.083 C 67.452 24.111,67.103 22.816,66.902 22.083 C 66.775 21.625,66.587 20.931,66.483 20.542 C 66.379 20.152,66.246 19.838,66.189 19.845 C 66.131 19.851,64.883 20.253,63.417 20.739 M67.903 22.083 C 68.036 22.591,70.995 33.633,71.253 34.583 C 73.069 41.286,75.086 48.762,75.254 49.417 C 75.371 49.875,76.421 53.775,77.587 58.083 C 78.753 62.392,79.803 66.292,79.920 66.750 C 80.038 67.208,81.238 71.671,82.588 76.667 C 83.937 81.662,85.131 86.123,85.241 86.579 C 85.422 87.332,85.492 87.418,86.009 87.524 C 86.780 87.682,87.500 88.507,87.500 89.232 C 87.500 89.849,87.047 89.520,94.462 94.282 C 102.694 99.569,116.218 108.268,118.000 109.422 C 119.146 110.165,121.828 111.892,123.961 113.261 C 126.093 114.630,129.543 116.850,131.627 118.194 C 133.712 119.537,136.504 121.334,137.833 122.185 C 139.162 123.036,141.309 124.423,142.604 125.266 C 143.898 126.109,145.136 126.894,145.353 127.011 L 145.749 127.222 145.316 126.653 C 145.079 126.340,143.175 123.758,141.086 120.917 C 138.998 118.075,136.786 115.075,136.172 114.250 C 135.558 113.425,133.755 110.987,132.166 108.833 C 129.368 105.040,127.631 102.690,124.406 98.333 C 120.227 92.689,119.067 91.119,116.833 88.084 C 115.504 86.279,113.273 83.252,111.876 81.359 C 110.478 79.466,108.783 77.167,108.109 76.250 C 107.435 75.333,106.023 73.421,104.972 72.000 C 103.920 70.579,101.870 67.804,100.417 65.833 C 98.964 63.862,97.163 61.425,96.415 60.417 C 95.667 59.408,93.230 56.108,91.000 53.083 C 88.770 50.058,86.111 46.458,85.092 45.083 C 84.073 43.708,81.592 40.346,79.578 37.612 C 77.564 34.878,75.185 31.653,74.291 30.445 C 73.397 29.238,71.672 26.903,70.458 25.258 C 67.789 21.641,67.787 21.638,67.903 22.083 M25.459 44.375 C 25.414 44.509,24.966 44.601,24.195 44.632 C 23.538 44.659,22.999 44.734,22.998 44.799 C 22.996 44.864,22.950 45.085,22.895 45.292 C 22.798 45.653,22.835 45.667,23.897 45.667 C 24.889 45.667,25.000 45.700,25.000 46.000 C 25.000 46.301,24.889 46.333,23.853 46.333 C 22.804 46.333,22.697 46.365,22.605 46.708 C 22.402 47.465,22.448 47.500,23.639 47.500 C 24.851 47.500,25.030 47.562,24.887 47.933 C 24.810 48.136,21.667 48.316,21.667 48.117 C 21.667 48.067,22.266 45.225,22.421 44.542 C 22.502 44.187,22.587 44.167,24.017 44.167 C 25.151 44.167,25.511 44.219,25.459 44.375 M23.506 52.566 C 8.605 77.569,10.319 109.483,27.811 132.750 C 44.635 155.129,72.564 165.707,100.167 160.156 C 103.898 159.406,103.833 159.431,103.657 158.788 C 103.483 158.153,101.218 149.726,97.399 135.500 C 95.885 129.862,94.545 124.875,94.421 124.417 C 93.718 121.823,88.458 102.249,87.480 98.583 C 86.843 96.200,86.290 94.156,86.250 94.042 C 86.200 93.898,85.936 93.987,85.389 94.334 C 84.085 95.161,83.068 94.896,82.995 93.711 C 82.867 91.641,82.894 91.483,83.447 91.020 C 83.881 90.659,83.944 90.525,83.801 90.270 C 83.706 90.100,83.665 89.632,83.710 89.231 C 83.788 88.537,83.763 88.484,83.188 88.133 C 82.855 87.930,81.758 87.228,80.750 86.574 C 79.742 85.919,75.317 83.073,70.917 80.248 C 66.517 77.423,62.317 74.724,61.583 74.250 C 60.850 73.775,58.637 72.351,56.667 71.085 C 54.696 69.819,52.596 68.469,52.000 68.085 C 51.404 67.701,49.304 66.351,47.333 65.085 C 45.362 63.819,43.150 62.396,42.417 61.923 C 40.523 60.702,34.079 56.561,29.021 53.316 L 24.708 50.548 23.506 52.566 M86.746 91.006 C 86.542 91.337,86.745 92.168,89.913 103.917 C 91.699 110.538,94.569 121.198,94.671 121.583 C 94.841 122.229,95.064 123.059,97.560 132.333 C 101.093 145.460,103.663 155.012,104.093 156.616 C 104.753 159.079,104.637 158.941,105.506 158.281 C 106.442 157.569,108.095 156.355,114.667 151.557 C 119.516 148.017,128.807 141.223,141.042 132.270 C 143.769 130.275,146.000 128.617,146.000 128.585 C 146.000 128.554,145.156 127.992,144.125 127.337 C 143.094 126.682,138.969 124.032,134.959 121.448 C 130.949 118.864,124.874 114.954,121.459 112.758 C 118.044 110.563,114.425 108.233,113.417 107.581 C 111.364 106.254,104.931 102.119,101.750 100.083 C 98.406 97.942,94.842 95.648,91.000 93.162 C 87.536 90.921,86.974 90.637,86.746 91.006 M83.845 91.606 C 83.434 92.129,83.401 92.710,83.762 93.071 C 84.547 93.856,85.413 92.498,84.741 91.537 C 84.406 91.060,84.266 91.071,83.845 91.606 M85.607 91.449 C 85.548 91.508,85.502 92.012,85.505 92.569 C 85.510 93.497,85.531 93.556,85.755 93.260 C 86.164 92.719,86.026 91.030,85.607 91.449 M156.258 123.742 C 157.079 124.564,156.637 126.495,155.492 127.087 C 154.661 127.517,152.806 127.425,152.912 126.958 C 152.959 126.752,153.114 125.983,153.258 125.250 C 153.661 123.182,153.542 123.333,154.769 123.333 C 155.693 123.333,155.907 123.392,156.258 123.742 M154.027 124.625 C 153.935 125.060,153.808 125.698,153.744 126.042 L 153.630 126.667 154.456 126.667 C 155.493 126.667,155.852 126.314,155.960 125.191 C 156.107 123.664,154.340 123.146,154.027 124.625 M146.093 130.608 C 137.589 143.416,123.758 153.876,108.723 158.871 L 107.583 159.250 112.833 159.366 C 115.721 159.430,122.621 159.598,128.167 159.739 C 133.712 159.880,139.975 160.035,142.083 160.084 C 149.293 160.252,165.914 160.662,168.125 160.726 C 169.340 160.762,170.333 160.726,170.333 160.646 C 170.333 160.566,169.234 159.019,167.890 157.209 C 164.009 151.978,163.352 151.089,161.080 148.000 C 159.901 146.396,158.214 144.108,157.331 142.917 C 154.017 138.440,149.909 132.868,148.930 131.521 C 148.373 130.753,147.727 129.902,147.494 129.629 L 147.072 129.133 146.093 130.608 M152.945 135.370 C 154.929 138.054,157.164 141.075,157.912 142.083 C 158.660 143.092,160.542 145.642,162.094 147.750 C 163.646 149.858,165.591 152.493,166.417 153.605 C 167.242 154.717,168.777 156.799,169.829 158.230 L 171.741 160.833 173.162 160.835 C 173.944 160.836,178.408 160.945,183.083 161.078 C 187.758 161.210,194.246 161.362,197.500 161.415 C 200.754 161.468,203.703 161.549,204.054 161.593 C 205.008 161.715,204.742 161.504,202.043 159.998 C 196.948 157.154,192.269 154.534,187.750 151.996 C 181.147 148.287,164.314 138.861,159.250 136.037 C 157.692 135.168,154.992 133.653,153.250 132.670 C 151.508 131.687,149.915 130.794,149.710 130.686 C 149.505 130.578,150.961 132.686,152.945 135.370 M144.157 131.141 C 143.842 131.397,141.371 133.219,138.667 135.191 C 133.628 138.863,123.294 146.416,120.167 148.711 C 119.204 149.418,115.884 151.845,112.789 154.106 C 109.694 156.367,107.187 158.243,107.218 158.274 C 107.293 158.349,110.154 157.361,112.250 156.536 C 124.634 151.662,135.294 143.495,143.578 132.535 C 144.952 130.717,145.090 130.385,144.157 131.141 M214.500 158.903 C 214.500 159.362,214.230 159.500,213.333 159.500 C 212.608 159.500,212.344 159.565,212.268 159.764 C 212.022 160.404,212.139 160.500,213.167 160.500 C 213.944 160.500,214.167 160.556,214.167 160.750 C 214.167 160.944,213.945 161.000,213.173 161.000 C 212.069 161.000,211.955 161.098,211.744 162.225 C 211.638 162.790,211.288 163.176,211.075 162.963 C 211.004 162.893,211.558 159.831,211.769 159.125 C 211.848 158.859,214.500 158.644,214.500 158.903 M107.535 161.208 C 107.983 161.561,108.036 162.076,107.672 162.539 C 107.380 162.910,107.369 162.989,107.586 163.169 C 107.935 163.458,107.893 164.046,107.488 164.561 C 107.148 164.993,104.509 165.270,104.496 164.875 C 104.494 164.806,104.661 163.906,104.867 162.875 L 105.243 161.000 106.256 161.000 C 106.814 161.000,107.389 161.094,107.535 161.208 M105.631 162.167 C 105.561 162.644,105.585 162.667,106.164 162.667 C 106.900 162.667,107.429 162.323,107.282 161.941 C 107.070 161.387,105.718 161.572,105.631 162.167 M176.117 162.532 C 176.528 162.918,176.624 163.333,176.302 163.333 C 176.194 163.333,175.935 163.174,175.728 162.980 C 174.919 162.219,173.500 163.089,173.500 164.346 C 173.500 165.464,174.623 165.892,175.432 165.083 C 176.048 164.467,176.421 164.513,176.085 165.164 C 175.387 166.514,173.224 166.401,172.916 164.999 C 172.461 162.927,174.700 161.201,176.117 162.532 M105.425 163.375 C 105.099 164.435,105.123 164.500,105.841 164.500 C 106.723 164.500,107.167 164.253,107.167 163.762 C 107.167 163.194,105.589 162.844,105.425 163.375 " stroke="none" fill="#fbfbfb" fill-rule="evenodd"></path><path id="path2" d="M81.375 16.453 C 81.627 16.491,82.040 16.491,82.292 16.453 C 82.544 16.415,82.337 16.383,81.833 16.383 C 81.329 16.383,81.123 16.415,81.375 16.453 M88.961 16.454 C 89.261 16.491,89.711 16.490,89.961 16.452 C 90.212 16.414,89.967 16.384,89.417 16.385 C 88.867 16.386,88.662 16.417,88.961 16.454 M82.955 17.287 C 83.250 17.324,83.775 17.324,84.121 17.288 C 84.467 17.252,84.225 17.222,83.583 17.221 C 82.942 17.221,82.659 17.250,82.955 17.287 M86.955 17.287 C 87.250 17.324,87.775 17.324,88.121 17.288 C 88.467 17.252,88.225 17.222,87.583 17.221 C 86.942 17.221,86.659 17.250,86.955 17.287 M134.993 35.542 C 135.402 35.977,135.758 36.333,135.785 36.333 C 135.910 36.333,135.778 36.184,135.042 35.493 L 134.250 34.750 134.993 35.542 M36.658 36.292 L 36.083 36.917 36.708 36.342 C 37.290 35.808,37.410 35.667,37.283 35.667 C 37.255 35.667,36.974 35.948,36.658 36.292 M34.742 36.875 L 34.083 37.583 34.792 36.925 C 35.181 36.562,35.500 36.243,35.500 36.216 C 35.500 36.090,35.355 36.216,34.742 36.875 M136.583 38.333 C 137.035 38.792,137.442 39.167,137.487 39.167 C 137.533 39.167,137.201 38.792,136.750 38.333 C 136.299 37.875,135.892 37.500,135.846 37.500 C 135.800 37.500,136.132 37.875,136.583 38.333 M32.833 38.750 C 32.428 39.162,32.135 39.500,32.181 39.500 C 32.226 39.500,32.595 39.162,33.000 38.750 C 33.405 38.337,33.699 38.000,33.653 38.000 C 33.607 38.000,33.238 38.337,32.833 38.750 M139.333 39.917 C 139.644 40.237,139.936 40.500,139.982 40.500 C 140.028 40.500,139.811 40.237,139.500 39.917 C 139.189 39.596,138.897 39.333,138.851 39.333 C 138.805 39.333,139.022 39.596,139.333 39.917 M32.073 40.875 L 31.583 41.417 32.125 40.927 C 32.630 40.471,32.743 40.333,32.615 40.333 C 32.586 40.333,32.342 40.577,32.073 40.875 M22.466 47.529 C 22.530 47.590,23.124 47.665,23.784 47.695 C 24.445 47.725,24.932 47.700,24.867 47.638 C 24.803 47.576,24.210 47.501,23.549 47.471 C 22.889 47.441,22.401 47.467,22.466 47.529 M13.705 81.667 C 13.705 81.987,13.740 82.119,13.782 81.958 C 13.823 81.798,13.823 81.535,13.782 81.375 C 13.740 81.215,13.705 81.346,13.705 81.667 M158.539 84.167 C 158.539 84.487,158.573 84.619,158.615 84.458 C 158.657 84.298,158.657 84.035,158.615 83.875 C 158.573 83.715,158.539 83.846,158.539 84.167 M13.381 86.417 C 13.382 86.875,13.415 87.043,13.453 86.789 C 13.491 86.536,13.490 86.161,13.451 85.956 C 13.411 85.751,13.380 85.958,13.381 86.417 M158.731 89.417 C 158.732 90.608,158.758 91.074,158.790 90.451 C 158.823 89.829,158.822 88.854,158.790 88.285 C 158.757 87.716,158.731 88.225,158.731 89.417 M12.388 89.417 C 12.389 90.058,12.419 90.300,12.455 89.955 C 12.491 89.609,12.490 89.084,12.454 88.788 C 12.417 88.492,12.387 88.775,12.388 89.417 M13.381 92.417 C 13.382 92.875,13.415 93.043,13.453 92.789 C 13.491 92.536,13.490 92.161,13.451 91.956 C 13.411 91.751,13.380 91.958,13.381 92.417 M13.709 97.250 C 13.711 97.617,13.745 97.747,13.785 97.540 C 13.824 97.332,13.823 97.032,13.781 96.873 C 13.739 96.714,13.707 96.883,13.709 97.250 M153.500 126.700 C 153.500 126.773,153.894 126.825,154.375 126.814 C 155.284 126.794,155.197 126.728,154.125 126.626 C 153.781 126.594,153.500 126.627,153.500 126.700 M137.909 139.208 L 137.250 139.917 137.958 139.258 C 138.348 138.895,138.667 138.577,138.667 138.550 C 138.667 138.423,138.522 138.550,137.909 139.208 M31.500 138.719 C 31.500 138.748,31.744 138.991,32.042 139.260 L 32.583 139.750 32.094 139.208 C 31.638 138.703,31.500 138.590,31.500 138.719 M32.833 138.885 C 32.833 138.914,33.077 139.158,33.375 139.427 L 33.917 139.917 33.427 139.375 C 32.971 138.870,32.833 138.757,32.833 138.885 M137.329 141.125 L 136.250 142.250 137.375 141.171 C 137.994 140.578,138.500 140.072,138.500 140.046 C 138.500 139.924,138.330 140.080,137.329 141.125 M35.417 141.500 C 35.775 141.867,36.105 142.167,36.151 142.167 C 36.197 142.167,35.941 141.867,35.583 141.500 C 35.225 141.133,34.895 140.833,34.849 140.833 C 34.803 140.833,35.059 141.133,35.417 141.500 M134.910 142.208 L 134.083 143.083 134.958 142.256 C 135.771 141.488,135.910 141.333,135.785 141.333 C 135.759 141.333,135.365 141.727,134.910 142.208 M35.750 143.000 C 36.108 143.367,36.438 143.667,36.484 143.667 C 36.530 143.667,36.275 143.367,35.917 143.000 C 35.559 142.633,35.228 142.333,35.182 142.333 C 35.137 142.333,35.392 142.633,35.750 143.000 M112.375 159.456 C 112.810 159.490,113.523 159.490,113.958 159.456 C 114.394 159.422,114.037 159.393,113.167 159.393 C 112.296 159.393,111.940 159.422,112.375 159.456 M119.625 159.623 C 120.106 159.657,120.894 159.657,121.375 159.623 C 121.856 159.589,121.462 159.562,120.500 159.562 C 119.537 159.562,119.144 159.589,119.625 159.623 M126.788 159.787 C 127.084 159.824,127.609 159.824,127.955 159.788 C 128.300 159.752,128.058 159.722,127.417 159.721 C 126.775 159.721,126.492 159.750,126.788 159.787 M133.128 159.954 C 133.428 159.991,133.878 159.990,134.128 159.952 C 134.378 159.914,134.133 159.884,133.583 159.885 C 133.033 159.886,132.828 159.917,133.128 159.954 M139.708 160.123 C 140.144 160.157,140.856 160.157,141.292 160.123 C 141.727 160.088,141.371 160.060,140.500 160.060 C 139.629 160.060,139.273 160.088,139.708 160.123 M110.042 160.290 C 110.569 160.323,111.431 160.323,111.958 160.290 C 112.485 160.257,112.054 160.230,111.000 160.230 C 109.946 160.230,109.515 160.257,110.042 160.290 M146.958 160.290 C 147.440 160.323,148.227 160.323,148.708 160.290 C 149.190 160.256,148.796 160.228,147.833 160.228 C 146.871 160.228,146.477 160.256,146.958 160.290 M117.788 160.454 C 118.084 160.490,118.609 160.491,118.955 160.455 C 119.300 160.419,119.058 160.389,118.417 160.388 C 117.775 160.387,117.492 160.417,117.788 160.454 M154.121 160.454 C 154.417 160.490,154.942 160.491,155.288 160.455 C 155.634 160.419,155.392 160.389,154.750 160.388 C 154.108 160.387,153.825 160.417,154.121 160.454 M124.295 160.621 C 124.594 160.658,125.044 160.657,125.295 160.619 C 125.545 160.581,125.300 160.551,124.750 160.552 C 124.200 160.553,123.995 160.584,124.295 160.621 M160.461 160.621 C 160.761 160.658,161.211 160.657,161.461 160.619 C 161.712 160.581,161.467 160.551,160.917 160.552 C 160.367 160.553,160.162 160.584,160.461 160.621 M130.458 160.789 C 130.848 160.824,131.485 160.824,131.875 160.789 C 132.265 160.754,131.946 160.725,131.167 160.725 C 130.387 160.725,130.069 160.754,130.458 160.789 M167.042 160.789 C 167.477 160.824,168.190 160.824,168.625 160.789 C 169.060 160.755,168.704 160.727,167.833 160.727 C 166.962 160.727,166.606 160.755,167.042 160.789 M137.375 160.956 C 137.902 160.990,138.765 160.990,139.292 160.956 C 139.819 160.923,139.387 160.896,138.333 160.896 C 137.279 160.896,136.848 160.923,137.375 160.956 M174.292 160.956 C 174.773 160.990,175.560 160.990,176.042 160.956 C 176.523 160.923,176.129 160.895,175.167 160.895 C 174.204 160.895,173.810 160.923,174.292 160.956 M145.121 161.120 C 145.417 161.157,145.942 161.158,146.288 161.122 C 146.634 161.086,146.392 161.055,145.750 161.055 C 145.108 161.054,144.825 161.083,145.121 161.120 M181.375 161.121 C 181.719 161.157,182.281 161.157,182.625 161.121 C 182.969 161.085,182.688 161.056,182.000 161.056 C 181.313 161.056,181.031 161.085,181.375 161.121 M151.458 161.287 C 151.756 161.324,152.244 161.324,152.542 161.287 C 152.840 161.250,152.596 161.220,152.000 161.220 C 151.404 161.220,151.160 161.250,151.458 161.287 M187.795 161.287 C 188.094 161.325,188.544 161.324,188.795 161.286 C 189.045 161.248,188.800 161.217,188.250 161.218 C 187.700 161.219,187.495 161.250,187.795 161.287 M79.208 161.448 C 79.369 161.490,79.631 161.490,79.792 161.448 C 79.952 161.406,79.821 161.372,79.500 161.372 C 79.179 161.372,79.048 161.406,79.208 161.448 M91.375 161.448 C 91.535 161.490,91.798 161.490,91.958 161.448 C 92.119 161.406,91.987 161.372,91.667 161.372 C 91.346 161.372,91.215 161.406,91.375 161.448 M157.792 161.455 C 158.181 161.490,158.819 161.490,159.208 161.455 C 159.598 161.420,159.279 161.392,158.500 161.392 C 157.721 161.392,157.402 161.420,157.792 161.455 M194.208 161.456 C 194.644 161.490,195.356 161.490,195.792 161.456 C 196.227 161.422,195.871 161.393,195.000 161.393 C 194.129 161.393,193.773 161.422,194.208 161.456 M81.788 161.620 C 82.084 161.657,82.609 161.658,82.955 161.622 C 83.300 161.586,83.058 161.555,82.417 161.555 C 81.775 161.554,81.492 161.583,81.788 161.620 M88.208 161.621 C 88.552 161.657,89.115 161.657,89.458 161.621 C 89.802 161.585,89.521 161.556,88.833 161.556 C 88.146 161.556,87.865 161.585,88.208 161.621 M164.708 161.623 C 165.235 161.656,166.098 161.656,166.625 161.623 C 167.152 161.590,166.721 161.563,165.667 161.563 C 164.612 161.563,164.181 161.590,164.708 161.623 M201.625 161.623 C 202.106 161.657,202.894 161.657,203.375 161.623 C 203.856 161.589,203.463 161.562,202.500 161.562 C 201.537 161.562,201.144 161.589,201.625 161.623 M172.375 161.788 C 172.719 161.824,173.281 161.824,173.625 161.788 C 173.969 161.752,173.688 161.723,173.000 161.723 C 172.313 161.723,172.031 161.752,172.375 161.788 M178.792 161.954 C 179.090 161.991,179.577 161.991,179.875 161.954 C 180.173 161.917,179.929 161.887,179.333 161.887 C 178.737 161.887,178.494 161.917,178.792 161.954 M184.958 162.122 C 185.348 162.157,185.985 162.157,186.375 162.122 C 186.765 162.087,186.446 162.058,185.667 162.058 C 184.887 162.058,184.569 162.087,184.958 162.122 M78.708 162.282 C 78.869 162.323,79.131 162.323,79.292 162.282 C 79.452 162.240,79.321 162.205,79.000 162.205 C 78.679 162.205,78.548 162.240,78.708 162.282 M91.875 162.282 C 92.035 162.323,92.298 162.323,92.458 162.282 C 92.619 162.240,92.487 162.205,92.167 162.205 C 91.846 162.205,91.715 162.240,91.875 162.282 M192.042 162.290 C 192.569 162.323,193.431 162.323,193.958 162.290 C 194.485 162.257,194.054 162.230,193.000 162.230 C 191.946 162.230,191.515 162.257,192.042 162.290 M199.708 162.455 C 200.052 162.491,200.615 162.491,200.958 162.455 C 201.302 162.419,201.021 162.389,200.333 162.389 C 199.646 162.389,199.365 162.419,199.708 162.455 M205.875 162.615 C 206.035 162.657,206.298 162.657,206.458 162.615 C 206.619 162.573,206.487 162.539,206.167 162.539 C 205.846 162.539,205.715 162.573,205.875 162.615 " stroke="none" fill="#a1a1a1" fill-rule="evenodd"></path><path id="path3" d="M84.797 16.456 C 85.282 16.490,86.032 16.490,86.464 16.456 C 86.896 16.421,86.500 16.394,85.583 16.394 C 84.667 16.395,84.313 16.423,84.797 16.456 M36.240 35.542 L 35.750 36.083 36.292 35.594 C 36.797 35.138,36.910 35.000,36.781 35.000 C 36.752 35.000,36.509 35.244,36.240 35.542 M13.539 82.667 C 13.539 82.987,13.573 83.119,13.615 82.958 C 13.657 82.798,13.657 82.535,13.615 82.375 C 13.573 82.215,13.539 82.346,13.539 82.667 M158.545 85.667 C 158.545 86.079,158.578 86.248,158.618 86.042 C 158.657 85.835,158.657 85.498,158.618 85.292 C 158.578 85.085,158.545 85.254,158.545 85.667 M12.553 86.667 C 12.553 87.263,12.584 87.506,12.621 87.208 C 12.658 86.910,12.658 86.423,12.621 86.125 C 12.584 85.827,12.553 86.071,12.553 86.667 M157.883 87.333 C 157.883 87.837,157.915 88.044,157.953 87.792 C 157.991 87.540,157.991 87.127,157.953 86.875 C 157.915 86.623,157.883 86.829,157.883 87.333 M157.883 91.500 C 157.883 92.004,157.915 92.210,157.953 91.958 C 157.991 91.706,157.991 91.294,157.953 91.042 C 157.915 90.790,157.883 90.996,157.883 91.500 M12.552 92.250 C 12.553 92.800,12.584 93.005,12.621 92.705 C 12.658 92.406,12.657 91.956,12.619 91.705 C 12.581 91.455,12.551 91.700,12.552 92.250 M158.545 93.167 C 158.545 93.579,158.578 93.748,158.618 93.542 C 158.657 93.335,158.657 92.998,158.618 92.792 C 158.578 92.585,158.545 92.754,158.545 93.167 M136.658 140.625 L 136.083 141.250 136.708 140.676 C 137.290 140.141,137.410 140.000,137.283 140.000 C 137.255 140.000,136.974 140.281,136.658 140.625 M212.542 158.955 C 212.885 158.991,213.448 158.991,213.792 158.955 C 214.135 158.919,213.854 158.889,213.167 158.889 C 212.479 158.889,212.198 158.919,212.542 158.955 M109.792 159.451 C 109.998 159.491,110.335 159.491,110.542 159.451 C 110.748 159.411,110.579 159.379,110.167 159.379 C 109.754 159.379,109.585 159.411,109.792 159.451 M116.125 159.621 C 116.423 159.658,116.910 159.658,117.208 159.621 C 117.506 159.584,117.263 159.553,116.667 159.553 C 116.071 159.553,115.827 159.584,116.125 159.621 M123.796 159.789 C 124.188 159.824,124.788 159.824,125.129 159.788 C 125.471 159.752,125.150 159.723,124.417 159.724 C 123.683 159.724,123.404 159.754,123.796 159.789 M106.880 160.123 C 107.318 160.157,107.993 160.157,108.380 160.122 C 108.767 160.087,108.408 160.059,107.583 160.059 C 106.758 160.060,106.442 160.088,106.880 160.123 M137.125 160.118 C 137.331 160.157,137.669 160.157,137.875 160.118 C 138.081 160.078,137.912 160.045,137.500 160.045 C 137.087 160.045,136.919 160.078,137.125 160.118 M114.208 160.286 C 114.460 160.324,114.873 160.324,115.125 160.286 C 115.377 160.248,115.171 160.217,114.667 160.217 C 114.162 160.217,113.956 160.248,114.208 160.286 M143.292 160.287 C 143.590 160.324,144.077 160.324,144.375 160.287 C 144.673 160.250,144.429 160.220,143.833 160.220 C 143.237 160.220,142.994 160.250,143.292 160.287 M120.460 160.451 C 120.668 160.491,120.968 160.490,121.127 160.448 C 121.286 160.406,121.117 160.374,120.750 160.375 C 120.383 160.377,120.253 160.411,120.460 160.451 M151.129 160.456 C 151.521 160.491,152.121 160.490,152.463 160.454 C 152.804 160.419,152.483 160.390,151.750 160.390 C 151.017 160.391,150.737 160.420,151.129 160.456 M134.213 160.789 C 134.652 160.824,135.327 160.823,135.713 160.788 C 136.100 160.754,135.742 160.725,134.917 160.726 C 134.092 160.726,133.775 160.755,134.213 160.789 M164.458 160.784 C 164.665 160.824,165.002 160.824,165.208 160.784 C 165.415 160.745,165.246 160.712,164.833 160.712 C 164.421 160.712,164.252 160.745,164.458 160.784 M141.542 160.953 C 141.794 160.991,142.206 160.991,142.458 160.953 C 142.710 160.915,142.504 160.883,142.000 160.883 C 141.496 160.883,141.290 160.915,141.542 160.953 M147.794 161.118 C 148.001 161.158,148.301 161.156,148.460 161.115 C 148.620 161.073,148.450 161.040,148.083 161.042 C 147.717 161.044,147.586 161.078,147.794 161.118 M178.375 161.121 C 178.719 161.157,179.281 161.157,179.625 161.121 C 179.969 161.085,179.688 161.056,179.000 161.056 C 178.313 161.056,178.031 161.085,178.375 161.121 M185.875 161.282 C 186.035 161.323,186.298 161.323,186.458 161.282 C 186.619 161.240,186.487 161.205,186.167 161.205 C 185.846 161.205,185.715 161.240,185.875 161.282 M161.380 161.456 C 161.818 161.490,162.493 161.490,162.880 161.455 C 163.267 161.420,162.908 161.392,162.083 161.392 C 161.258 161.393,160.942 161.422,161.380 161.456 M191.792 161.451 C 191.998 161.491,192.335 161.491,192.542 161.451 C 192.748 161.411,192.579 161.379,192.167 161.379 C 191.754 161.379,191.585 161.411,191.792 161.451 M168.877 161.620 C 169.131 161.658,169.506 161.657,169.711 161.617 C 169.916 161.578,169.708 161.546,169.250 161.548 C 168.792 161.549,168.624 161.581,168.877 161.620 M197.958 161.621 C 198.256 161.658,198.744 161.658,199.042 161.621 C 199.340 161.584,199.096 161.553,198.500 161.553 C 197.904 161.553,197.660 161.584,197.958 161.621 M84.963 161.789 C 85.355 161.824,85.955 161.824,86.296 161.788 C 86.637 161.752,86.317 161.723,85.583 161.724 C 84.850 161.724,84.571 161.754,84.963 161.789 M175.042 161.782 C 175.202 161.823,175.465 161.823,175.625 161.782 C 175.785 161.740,175.654 161.705,175.333 161.705 C 175.012 161.705,174.881 161.740,175.042 161.782 M181.042 161.948 C 181.202 161.990,181.465 161.990,181.625 161.948 C 181.785 161.906,181.654 161.872,181.333 161.872 C 181.012 161.872,180.881 161.906,181.042 161.948 M188.713 162.123 C 189.152 162.157,189.827 162.157,190.213 162.122 C 190.600 162.087,190.242 162.059,189.417 162.059 C 188.592 162.060,188.275 162.088,188.713 162.123 M196.211 162.286 C 196.464 162.325,196.839 162.324,197.044 162.284 C 197.249 162.244,197.042 162.213,196.583 162.214 C 196.125 162.216,195.957 162.248,196.211 162.286 M82.460 162.451 C 82.668 162.491,82.968 162.490,83.127 162.448 C 83.286 162.406,83.117 162.374,82.750 162.375 C 82.383 162.377,82.253 162.411,82.460 162.451 M88.127 162.451 C 88.334 162.491,88.634 162.490,88.794 162.448 C 88.953 162.406,88.783 162.374,88.417 162.375 C 88.050 162.377,87.920 162.411,88.127 162.451 M202.375 162.448 C 202.535 162.490,202.798 162.490,202.958 162.448 C 203.119 162.406,202.987 162.372,202.667 162.372 C 202.346 162.372,202.215 162.406,202.375 162.448 " stroke="none" fill="#7c7c7c" fill-rule="evenodd"></path><path id="path4" d="M82.958 16.451 C 83.165 16.491,83.502 16.491,83.708 16.451 C 83.915 16.411,83.746 16.379,83.333 16.379 C 82.921 16.379,82.752 16.411,82.958 16.451 M87.458 16.451 C 87.665 16.491,88.002 16.491,88.208 16.451 C 88.415 16.411,88.246 16.379,87.833 16.379 C 87.421 16.379,87.252 16.411,87.458 16.451 M157.872 88.667 C 157.872 88.987,157.906 89.119,157.948 88.958 C 157.990 88.798,157.990 88.535,157.948 88.375 C 157.906 88.215,157.872 88.346,157.872 88.667 M157.872 90.167 C 157.872 90.487,157.906 90.619,157.948 90.458 C 157.990 90.298,157.990 90.035,157.948 89.875 C 157.906 89.715,157.872 89.846,157.872 90.167 M117.960 159.618 C 118.168 159.658,118.468 159.656,118.627 159.615 C 118.786 159.573,118.617 159.540,118.250 159.542 C 117.883 159.544,117.753 159.578,117.960 159.618 M105.375 160.115 C 105.535 160.157,105.798 160.157,105.958 160.115 C 106.119 160.073,105.987 160.039,105.667 160.039 C 105.346 160.039,105.215 160.073,105.375 160.115 M113.042 160.282 C 113.202 160.323,113.465 160.323,113.625 160.282 C 113.785 160.240,113.654 160.205,113.333 160.205 C 113.013 160.205,112.881 160.240,113.042 160.282 M145.125 160.284 C 145.331 160.324,145.669 160.324,145.875 160.284 C 146.081 160.245,145.912 160.212,145.500 160.212 C 145.087 160.212,144.919 160.245,145.125 160.284 M132.708 160.782 C 132.869 160.823,133.131 160.823,133.292 160.782 C 133.452 160.740,133.321 160.705,133.000 160.705 C 132.679 160.705,132.548 160.740,132.708 160.782 M140.375 160.948 C 140.535 160.990,140.798 160.990,140.958 160.948 C 141.119 160.906,140.987 160.872,140.667 160.872 C 140.346 160.872,140.215 160.906,140.375 160.948 M172.627 160.951 C 172.834 160.991,173.134 160.990,173.294 160.948 C 173.453 160.906,173.283 160.874,172.917 160.875 C 172.550 160.877,172.420 160.911,172.627 160.951 M106.127 161.618 C 106.334 161.658,106.634 161.656,106.794 161.615 C 106.953 161.573,106.783 161.540,106.417 161.542 C 106.050 161.544,105.920 161.578,106.127 161.618 M167.708 161.615 C 167.869 161.657,168.131 161.657,168.292 161.615 C 168.452 161.573,168.321 161.539,168.000 161.539 C 167.679 161.539,167.548 161.573,167.708 161.615 M199.792 161.618 C 199.998 161.657,200.335 161.657,200.542 161.618 C 200.748 161.578,200.579 161.545,200.167 161.545 C 199.754 161.545,199.585 161.578,199.792 161.618 M187.208 162.115 C 187.369 162.157,187.631 162.157,187.792 162.115 C 187.952 162.073,187.821 162.039,187.500 162.039 C 187.179 162.039,187.048 162.073,187.208 162.115 M195.042 162.282 C 195.202 162.323,195.465 162.323,195.625 162.282 C 195.785 162.240,195.654 162.205,195.333 162.205 C 195.012 162.205,194.881 162.240,195.042 162.282 " stroke="none" fill="#848484" fill-rule="evenodd"></path></g></svg>